<svg display="block" role="presentation" viewBox="0 0 122 17" xmlns="http://www.w3.org/2000/svg"><path d="M 118.944 3.915 C 118.944 3.317 118.92 2.815 118.873 2.405 C 118.849 2.021 118.778 1.641 118.661 1.274 C 118.551 0.944 118.401 0.644 118.213 0.378 L 118.213 0.283 L 122.009 0.283 L 122.009 0.378 C 121.816 0.653 121.665 0.955 121.561 1.274 C 121.451 1.604 121.372 1.981 121.325 2.405 C 121.278 2.815 121.254 3.317 121.254 3.915 L 121.254 13.04 C 121.254 13.637 121.278 14.148 121.325 14.573 C 121.372 14.982 121.451 15.351 121.561 15.681 C 121.671 15.995 121.82 16.294 122.009 16.577 L 122.009 16.671 L 118.213 16.671 L 118.213 16.577 C 118.401 16.294 118.551 15.995 118.661 15.681 C 118.771 15.351 118.841 14.981 118.873 14.573 C 118.92 14.164 118.944 13.653 118.944 13.04 Z M 107.696 3.915 C 107.696 3.317 107.672 2.815 107.625 2.405 C 107.601 2.021 107.53 1.641 107.413 1.274 C 107.303 0.944 107.153 0.644 106.965 0.378 L 106.965 0.283 L 110.761 0.283 L 110.761 0.378 C 110.569 0.653 110.418 0.955 110.313 1.274 C 110.195 1.642 110.116 2.021 110.077 2.405 C 110.046 2.815 110.03 3.317 110.03 3.915 L 110.03 13.04 C 110.03 13.653 110.046 14.164 110.077 14.573 C 110.125 14.982 110.203 15.351 110.313 15.681 C 110.423 15.995 110.573 16.294 110.761 16.577 L 110.761 16.671 L 106.965 16.671 L 106.965 16.577 C 107.153 16.294 107.303 15.995 107.413 15.681 C 107.523 15.351 107.594 14.981 107.625 14.573 C 107.672 14.164 107.696 13.653 107.696 13.04 Z M 109.04 7.545 L 119.297 7.545 L 119.297 9.173 L 109.04 9.173 L 109.04 7.546 Z M 98.645 16.954 C 97.12 16.954 95.713 16.624 94.425 15.964 C 93.135 15.304 92.098 14.337 91.312 13.064 C 90.542 11.774 90.156 10.257 90.156 8.512 C 90.156 6.767 90.557 5.251 91.359 3.962 C 92.127 2.704 93.229 1.684 94.542 1.014 C 95.847 0.342 97.295 -0.006 98.763 0 C 99.706 0 100.563 0.102 101.333 0.307 C 102.108 0.507 102.854 0.808 103.55 1.203 L 103.55 3.985 L 103.432 3.985 C 102.912 3.259 102.224 2.669 101.428 2.264 C 100.649 1.857 99.783 1.647 98.905 1.651 C 97.757 1.651 96.711 1.926 95.768 2.476 C 94.825 3.026 94.078 3.804 93.528 4.81 C 92.978 5.816 92.703 6.98 92.703 8.3 C 92.703 9.715 92.986 10.925 93.552 11.931 C 94.118 12.938 94.888 13.701 95.862 14.219 C 96.837 14.722 97.938 14.973 99.164 14.973 C 100.028 14.973 100.854 14.832 101.64 14.549 C 102.442 14.266 103.243 13.842 104.045 13.276 L 104.328 14.572 C 103.542 15.359 102.685 15.956 101.758 16.365 C 100.83 16.758 99.793 16.955 98.645 16.955 Z M 76.864 3.915 C 76.864 3.317 76.84 2.815 76.794 2.405 C 76.77 2.021 76.698 1.641 76.581 1.274 C 76.471 0.944 76.321 0.644 76.133 0.378 L 76.133 0.283 L 87.569 0.283 L 87.569 3.043 L 87.451 3.043 C 87.255 2.767 86.997 2.54 86.697 2.382 C 86.398 2.209 86.021 2.091 85.565 2.028 C 85.109 1.95 84.535 1.91 83.844 1.91 L 79.198 1.91 L 79.198 7.57 L 82.782 7.57 C 83.396 7.57 83.906 7.538 84.315 7.475 C 84.665 7.429 85.006 7.334 85.329 7.192 C 85.592 7.069 85.832 6.902 86.037 6.697 L 86.154 6.697 L 86.154 10.045 L 86.037 10.045 C 85.849 9.826 85.615 9.649 85.353 9.527 C 85.085 9.401 84.747 9.314 84.339 9.267 C 83.823 9.197 83.303 9.166 82.782 9.173 L 79.198 9.173 L 79.198 15.044 L 84.174 15.044 C 84.719 15.052 85.263 15.013 85.801 14.927 C 86.257 14.832 86.641 14.683 86.956 14.478 C 87.296 14.264 87.573 13.963 87.758 13.606 L 87.899 13.606 L 87.899 16.671 L 76.133 16.671 L 76.133 16.577 C 76.322 16.294 76.471 15.995 76.581 15.681 C 76.691 15.351 76.761 14.981 76.793 14.573 C 76.84 14.164 76.863 13.653 76.863 13.04 L 76.863 3.915 Z M 65.702 1.887 L 63.886 1.887 C 63.195 1.887 62.606 1.934 62.118 2.028 C 61.646 2.122 61.253 2.272 60.938 2.476 C 60.641 2.679 60.392 2.945 60.208 3.254 L 60.066 3.254 L 60.066 0.284 L 73.65 0.284 L 73.65 3.254 L 73.532 3.254 C 73.344 2.94 73.085 2.674 72.777 2.476 C 72.478 2.272 72.085 2.122 71.598 2.028 C 71.127 1.934 70.545 1.887 69.853 1.887 L 68.013 1.887 L 68.013 13.04 C 68.013 13.653 68.038 14.172 68.085 14.596 C 68.132 15.006 68.218 15.374 68.344 15.705 C 68.47 16.019 68.643 16.31 68.863 16.577 L 68.863 16.671 L 64.854 16.671 L 64.854 16.577 C 65.074 16.31 65.247 16.019 65.373 15.705 C 65.499 15.375 65.585 15.005 65.633 14.596 C 65.679 14.172 65.703 13.653 65.703 13.04 L 65.703 1.887 Z M 54.528 3.915 C 54.528 3.317 54.504 2.815 54.458 2.405 C 54.434 2.021 54.362 1.641 54.245 1.274 C 54.135 0.944 53.985 0.644 53.797 0.378 L 53.797 0.283 L 57.593 0.283 L 57.593 0.378 C 57.4 0.653 57.249 0.955 57.145 1.274 C 57.027 1.642 56.948 2.021 56.909 2.405 C 56.878 2.815 56.862 3.317 56.862 3.915 L 56.862 13.04 C 56.862 13.653 56.878 14.164 56.909 14.573 C 56.957 14.982 57.035 15.351 57.145 15.681 C 57.255 15.995 57.405 16.294 57.593 16.577 L 57.593 16.671 L 53.797 16.671 L 53.797 16.577 C 53.986 16.294 54.135 15.995 54.245 15.681 C 54.355 15.351 54.425 14.981 54.457 14.573 C 54.504 14.164 54.527 13.653 54.527 13.04 L 54.527 3.915 Z M 38.997 3.915 C 38.997 3.317 38.973 2.815 38.926 2.405 C 38.902 2.021 38.831 1.641 38.714 1.274 C 38.604 0.944 38.454 0.644 38.266 0.378 L 38.266 0.283 L 43.996 0.283 C 45.175 0.283 46.196 0.464 47.061 0.826 C 47.926 1.171 48.586 1.666 49.041 2.311 C 49.498 2.956 49.726 3.702 49.726 4.551 C 49.726 5.589 49.356 6.485 48.617 7.239 C 47.894 7.979 46.888 8.466 45.599 8.701 L 52.178 16.624 L 52.178 16.671 L 49.207 16.671 L 42.982 8.937 L 41.307 8.937 L 41.307 13.04 C 41.307 13.355 41.315 13.669 41.331 13.983 C 41.347 14.282 41.371 14.557 41.401 14.809 C 41.449 15.17 41.52 15.492 41.614 15.775 C 41.724 16.058 41.866 16.325 42.038 16.577 L 42.038 16.671 L 38.266 16.671 L 38.266 16.577 C 38.454 16.294 38.604 15.995 38.714 15.681 C 38.824 15.351 38.894 14.981 38.926 14.573 C 38.973 14.164 38.996 13.653 38.996 13.04 L 38.996 3.915 Z M 43.571 7.334 C 44.766 7.334 45.678 7.09 46.306 6.603 C 46.951 6.115 47.273 5.439 47.273 4.575 C 47.273 3.977 47.132 3.482 46.849 3.089 C 46.582 2.681 46.173 2.374 45.623 2.169 C 45.073 1.965 44.397 1.863 43.595 1.863 L 41.307 1.863 L 41.307 7.333 L 43.571 7.333 Z M 24.247 3.915 C 24.247 3.317 24.223 2.815 24.176 2.405 C 24.152 2.021 24.081 1.641 23.964 1.274 C 23.854 0.944 23.704 0.644 23.516 0.378 L 23.516 0.283 L 34.952 0.283 L 34.952 3.043 L 34.834 3.043 C 34.638 2.767 34.379 2.54 34.079 2.382 C 33.781 2.209 33.404 2.091 32.948 2.028 C 32.492 1.95 31.918 1.91 31.226 1.91 L 26.581 1.91 L 26.581 7.57 L 30.165 7.57 C 30.778 7.57 31.289 7.538 31.698 7.475 C 32.048 7.429 32.389 7.334 32.712 7.192 C 32.975 7.07 33.214 6.902 33.419 6.697 L 33.537 6.697 L 33.537 10.045 L 33.419 10.045 C 33.231 9.826 32.998 9.649 32.736 9.527 C 32.468 9.401 32.13 9.314 31.722 9.267 C 31.206 9.197 30.686 9.166 30.165 9.173 L 26.581 9.173 L 26.581 15.044 L 31.556 15.044 C 32.101 15.052 32.646 15.013 33.184 14.927 C 33.639 14.832 34.024 14.683 34.339 14.478 C 34.679 14.264 34.956 13.963 35.141 13.606 L 35.282 13.606 L 35.282 16.671 L 23.516 16.671 L 23.516 16.577 C 23.704 16.294 23.854 15.995 23.964 15.681 C 24.074 15.351 24.144 14.981 24.176 14.573 C 24.223 14.164 24.246 13.653 24.246 13.04 L 24.246 3.915 Z M 6.362 1.463 C 6.18 1.115 6.066 0.736 6.025 0.346 L 1.928 0.346 L 1.928 0.414 C 2.996 1.011 2.74 2.025 2.651 2.716 L 1.31 13.137 C 1.117 14.485 0.988 15.695 0 16.617 L 0 16.685 L 3.808 16.685 L 3.808 16.616 C 2.708 16.088 2.868 15.005 3.06 13.479 L 4.402 2.8 L 8.837 13.99 C 9.195 15.186 9.92 16.238 10.909 17 L 16.139 2.827 L 17.479 14.766 C 17.479 15.619 17.327 16.361 16.524 16.634 L 16.524 16.719 L 21.031 16.719 L 21.031 16.65 C 20.091 15.934 19.979 15.26 19.834 14.092 L 18.292 1.89 C 18.292 1.267 18.452 0.585 19.007 0.414 L 19.007 0.346 L 14.99 0.346 C 14.967 0.883 14.847 1.412 14.637 1.906 L 10.748 12.412 Z" fill="rgb(4, 35, 28)" height="17.000079379320145px" id="AKhx2CJhb" width="122.00899743652344px"/></svg>